General
Complete name                  : A.Trip.To.The.Moon.1902.720p.BluRay.DTS.x264-AMX.mkv
Format                         : Matroska
Format version                 : Version 4 / Version 2
File size                      : 949 MiB
Duration                       : 15mn 36s
Overall bit rate               : 8 503 Kbps
Writing application            : mkvmerge v6.0.0 ('Coming Up For Air') built on Jan 20 2013 09:52:00
Writing library                : libebml v1.3.0 + libmatroska v1.4.0

Video
ID                             : 1
Format                         : AVC
Format/Info                    : Advanced Video Codec
Format profile                 : High@L4.0
Format settings, CABAC         : Yes
Format settings, ReFrames      : 8 frames
Codec ID                       : V_MPEG4/ISO/AVC
Duration                       : 15mn 36s
Bit rate                       : 6 824 Kbps
Width                          : 960 pixels
Height                         : 720 pixels
Display aspect ratio           : 4:3
Frame rate mode                : Constant
Frame rate                     : 23.976 fps
Color space                    : YUV
Chroma subsampling             : 4:2:0
Bit depth                      : 8 bits
Scan type                      : Progressive
Bits/(Pixel*Frame)             : 0.412
Stream size                    : 762 MiB (80%)
Writing library                : x264 core 129 r2245 bc13772
Default                        : Yes
Forced                         : No

Audio
ID                             : 2
Format                         : DTS
Format/Info                    : Digital Theater Systems
Mode                           : 16
Format settings, Endianness    : Big
Codec ID                       : A_DTS
Duration                       : 15mn 36s
Bit rate mode                  : Constant
Bit rate                       : 1 509 Kbps
Channel(s)                     : 6 channels
Channel positions              : Front: L C R, Side: L R, LFE
Sampling rate                  : 48.0 KHz
Bit depth                      : 16 bits
Compression mode               : Lossy
Stream size                    : 168 MiB (18%)
Language                       : English
Default                        : Yes
Forced                         : No

Menu
00:00:00.000                   : en:Chapter 00
00:03:49.395                   : en:Chapter 01
00:07:17.228                   : en:Chapter 02
00:10:15.906                   : en:Chapter 03
00:13:01.989                   : en:Chapter 04

Source: A.Trip.To.The.Moon.1902.1080p.BluRay.h264-BluHD Thanks!!!